<?xml version="1.0" encoding="utf-8"?>
<!-- Generator: Adobe Illustrator 19.2.1, SVG Export Plug-In . SVG Version: 6.00 Build 0)  -->
<svg version="1.1" id="Layer_1" xmlns="http://www.w3.org/2000/svg" xmlns:xlink="http://www.w3.org/1999/xlink" x="0px" y="0px"
	 viewBox="0 0 350 100" style="enable-background:new 0 0 350 100;" xml:space="preserve">
<style type="text/css">
	.st0{fill:#FBFBFB;}
</style>
<g>
	<path class="st0" d="M123.1,58.3v7.3h-21.7V35.1h21.4v7.3h-13v4.3h11.1v6.8h-11.1v4.8H123.1z"/>
	<path class="st0" d="M127,65.6V35.1H148v7.3h-12.5v5.1h10.2v6.8h-10.2v11.3H127z"/>
	<path class="st0" d="M169.4,45c-0.9-0.5-1.7-1-2.7-1.4c-0.8-0.3-1.6-0.7-2.6-1c-1-0.3-1.9-0.5-2.8-0.5c-0.7,0-1.3,0.1-1.8,0.3
		c-0.4,0.2-0.7,0.6-0.7,1.2c0,0.4,0.1,0.7,0.4,1s0.6,0.5,1.1,0.7s1.1,0.4,1.8,0.6c0.7,0.2,1.5,0.4,2.4,0.7c1.4,0.4,2.7,0.9,3.8,1.4
		c1.1,0.5,2.1,1.1,2.9,1.8c0.8,0.7,1.4,1.6,1.8,2.6c0.4,1,0.6,2.2,0.6,3.7c0,1.8-0.3,3.4-1,4.6c-0.7,1.2-1.6,2.2-2.7,3
		c-1.1,0.7-2.3,1.3-3.7,1.6c-1.4,0.3-2.8,0.5-4.2,0.5c-1.1,0-2.3-0.1-3.4-0.3s-2.3-0.4-3.5-0.7c-1.2-0.3-2.3-0.7-3.4-1.1
		s-2.1-0.9-3-1.5l3.6-7.3c1,0.6,2,1.2,3.1,1.7c0.9,0.4,2,0.8,3.1,1.2s2.3,0.5,3.5,0.5c0.9,0,1.6-0.1,1.9-0.4s0.5-0.6,0.5-1
		c0-0.4-0.2-0.8-0.5-1.1s-0.9-0.6-1.5-0.8s-1.4-0.5-2.2-0.7s-1.7-0.5-2.6-0.8c-1.3-0.5-2.5-1-3.5-1.5c-1-0.5-1.8-1.1-2.4-1.8
		c-0.6-0.7-1.1-1.4-1.4-2.3s-0.5-1.8-0.5-3c0-1.7,0.3-3.2,0.9-4.5c0.6-1.3,1.5-2.4,2.5-3.2c1.1-0.9,2.3-1.5,3.6-2
		c1.4-0.4,2.8-0.7,4.3-0.7c1.1,0,2.2,0.1,3.3,0.3c1.1,0.2,2.1,0.5,3.1,0.8c1,0.3,1.9,0.7,2.8,1.1s1.6,0.8,2.3,1.1L169.4,45z"/>
	<path class="st0" d="M177,57.4v-7.3h13.4v7.3H177z"/>
	<path class="st0" d="M193.8,59.4l14.3-17h-13.6v-7.3h23.3v6.2l-13.4,17h13.7v7.3h-24.2V59.4z"/>
	<path class="st0" d="M235.3,58.4c1,0,1.8-0.2,2.5-0.6s1.2-1,1.7-1.7s0.7-1.5,0.9-2.4c0.2-0.9,0.3-1.9,0.3-2.9V35.1h8.4v15.7
		c0,2.1-0.3,4.1-0.8,6s-1.4,3.4-2.5,4.8c-1.1,1.3-2.6,2.4-4.3,3.2c-1.7,0.8-3.8,1.2-6.1,1.2c-2.4,0-4.5-0.4-6.3-1.2
		s-3.2-1.9-4.3-3.3c-1.1-1.4-1.9-3-2.4-4.8s-0.8-3.7-0.8-5.8V35.1h8.4v15.7c0,1,0.1,2,0.3,2.9s0.5,1.7,0.9,2.4s1,1.3,1.7,1.7
		S234.3,58.4,235.3,58.4z"/>
</g>
<g>
	<path class="st0" d="M7.6,10.7h25.5c0.5,1.9,2.2,3.3,4.3,3.3c2.5,0,4.5-2,4.5-4.5c0-2.5-2-4.5-4.5-4.5c-2,0-3.8,1.4-4.3,3.3H5.2
		v84.6H129v-2.4H7.6V10.7z M37.4,7.4c1.1,0,2.1,0.9,2.1,2.1c0,1.1-0.9,2.1-2.1,2.1c-1.1,0-2.1-0.9-2.1-2.1
		C35.4,8.3,36.3,7.4,37.4,7.4z"/>
	<path class="st0" d="M59.7,8.3C59.2,6.4,57.5,5,55.4,5C53,5,51,7,51,9.5c0,2.5,2,4.5,4.5,4.5c2,0,3.8-1.4,4.3-3.3h282.7v79.9H239.2
		v2.4h105.6V8.3H59.7z M55.4,11.5c-1.1,0-2.1-0.9-2.1-2.1c0-1.1,0.9-2.1,2.1-2.1c1.1,0,2.1,0.9,2.1,2.1
		C57.5,10.6,56.6,11.5,55.4,11.5z"/>
</g>
<rect x="129" y="90.5" class="st0" width="110.1" height="2.4"/>
</svg>
