<?xml version="1.0" encoding="utf-8"?>
<!-- Generator: Adobe Illustrator 19.2.1, SVG Export Plug-In . SVG Version: 6.00 Build 0)  -->
<svg version="1.1" id="Layer_1" xmlns="http://www.w3.org/2000/svg" xmlns:xlink="http://www.w3.org/1999/xlink" x="0px" y="0px"
	 viewBox="0 0 1920 1080" style="enable-background:new 0 0 1920 1080;" xml:space="preserve">
<style type="text/css">
	.st0{fill:url(#SVGID_1_);}
	.st1{clip-path:url(#SVGID_3_);}
	.st2{fill:#FFFFFF;}
</style>
<radialGradient id="SVGID_1_" cx="454.058" cy="185.0002" r="1317.9784" gradientTransform="matrix(4.168723e-011 0.3482 -0.9285 1.563271e-011 1131.7758 381.8998)" gradientUnits="userSpaceOnUse">
	<stop  offset="0" style="stop-color:#3F9CC6"/>
	<stop  offset="1" style="stop-color:#027DB4"/>
</radialGradient>
<rect x="0" y="0" class="st0" width="1920" height="1080"/>
<g>
	<defs>
		<rect id="SVGID_2_" x="-15" y="-1101.5" width="1950" height="2925"/>
	</defs>
	<clipPath id="SVGID_3_">
		<use xlink:href="#SVGID_2_"  style="overflow:visible;"/>
	</clipPath>
	<g class="st1">
		<g>
			<path class="st2" d="M1492.6,764.1c0-3.7-2.6-6.8-6-7.6V652.8h-60.7v799.5h3.7V656.5h53.3v99.9c-3.4,0.8-6,3.9-6,7.6
				c0,4.3,3.5,7.9,7.9,7.9C1489,771.9,1492.6,768.4,1492.6,764.1z"/>
			<path class="st2" d="M1462.2,680.4c0-4.3-3.5-7.9-7.9-7.9s-7.9,3.5-7.9,7.9c0,3.7,2.6,6.8,6,7.6v764.2h3.7V688
				C1459.7,687.2,1462.2,684.1,1462.2,680.4z"/>
			<path class="st2" d="M1484.7,796.7l34.7-36.1V611c3.4-0.8,6-3.9,6-7.6c0-4.3-3.5-7.9-7.9-7.9c-4.3,0-7.9,3.5-7.9,7.9
				c0,3.7,2.6,6.8,6,7.6v148.1l-34.7,36.1v662.6h3.7V796.7z"/>
			<path class="st2" d="M1378.7,711.7V532.9c3.4-0.8,6-3.9,6-7.6c0-4.3-3.5-7.9-7.9-7.9c-4.3,0-7.9,3.5-7.9,7.9c0,3.7,2.6,6.8,6,7.6
				V713l31.5,39.2V1456h3.7V750.9L1378.7,711.7z"/>
			<path class="st2" d="M1348.3,705.7v-76.4c3.4-0.8,6-3.9,6-7.6c0-4.3-3.5-7.9-7.9-7.9c-4.3,0-7.9,3.5-7.9,7.9c0,3.7,2.6,6.8,6,7.6
				v77.7l42.4,53.6v691.7h3.7v-693L1348.3,705.7z"/>
		</g>
		<g>
			<path class="st2" d="M1525.4,1070.6V876.5c3.4-0.8,6-3.9,6-7.6c0-4.3-3.5-7.9-7.9-7.9c-4.3,0-7.9,3.5-7.9,7.9
				c0,3.7,2.6,6.8,6,7.6v193.1l-25.2,38.3v344.4h3.7v-343.3L1525.4,1070.6z"/>
			<path class="st2" d="M1523.6,1229.1c0-4.3-3.5-7.9-7.9-7.9c-4.3,0-7.9,3.5-7.9,7.9c0,3.7,2.6,6.8,6,7.6v215.6h3.7v-215.6
				C1521,1235.9,1523.6,1232.8,1523.6,1229.1z"/>
			<path class="st2" d="M1523.8,1158.9c2.1-1.4,3.4-3.8,3.4-6.5c0-4.3-3.5-7.9-7.9-7.9c-4.3,0-7.9,3.5-7.9,7.9
				c0,4.3,3.5,7.9,7.9,7.9c0.3,0,0.6-0.1,1-0.1l21.3,56.3v235.8h3.7v-236.5L1523.8,1158.9z"/>
			<path class="st2" d="M1545.3,1141.7V967.2c3.4-0.8,6-3.9,6-7.6c0-4.3-3.5-7.9-7.9-7.9c-4.3,0-7.9,3.5-7.9,7.9
				c0,3.7,2.6,6.8,6,7.6v175.1l23.2,62v247.9h3.7v-248.5L1545.3,1141.7z"/>
			<path class="st2" d="M1628.7,1143.9v162.8c-3.4,0.8-6,3.9-6,7.6c0,4.3,3.5,7.9,7.9,7.9c4.3,0,7.9-3.5,7.9-7.9
				c0-3.7-2.6-6.8-6-7.6v-166.5h-39.8v312.1h3.7v-308.4H1628.7z"/>
			<path class="st2" d="M1614.3,1204.3c3.4-0.8,6-3.9,6-7.6c0-4.3-3.5-7.9-7.9-7.9c-4.3,0-7.9,3.5-7.9,7.9c0,3.7,2.6,6.8,6,7.6v248
				h3.7V1204.3z"/>
			<path class="st2" d="M1587.8,803.4c0-4.3-3.5-7.9-7.9-7.9c-4.3,0-7.9,3.5-7.9,7.9c0,3.7,2.6,6.8,6,7.6v641.2h3.7V811
				C1585.2,810.2,1587.8,807.1,1587.8,803.4z"/>
		</g>
		<g>
			<path class="st2" d="M1327.8,724.1l37.9,48.5v269.8h-31.4V789.3c3.4-0.8,6-3.9,6-7.6c0-4.3-3.5-7.9-7.9-7.9
				c-4.3,0-7.9,3.5-7.9,7.9c0,3.7,2.6,6.8,6,7.6V1046h38.8V771.3l-39.8-50.9h-23.8v731.9h3.7V724.1H1327.8z"/>
			<path class="st2" d="M1320.3,679.4V579.2c3.4-0.8,6-3.9,6-7.6c0-4.3-3.5-7.9-7.9-7.9c-4.3,0-7.9,3.5-7.9,7.9c0,3.7,2.6,6.8,6,7.6
				v98.8l-25.9,27.6v746.7h3.7V707L1320.3,679.4z"/>
			<path class="st2" d="M1287.4,641.9c0-4.3-3.5-7.9-7.9-7.9c-4.3,0-7.9,3.5-7.9,7.9c0,3.7,2.6,6.8,6,7.6v802.7h3.7V649.6
				C1284.9,648.7,1287.4,645.7,1287.4,641.9z"/>
			<path class="st2" d="M1367.1,1116c3.4-0.8,6-3.9,6-7.6c0-4.3-3.5-7.9-7.9-7.9c-4.3,0-7.9,3.5-7.9,7.9c0,3.7,2.6,6.8,6,7.6v336.3
				h3.7V1116z"/>
			<path class="st2" d="M1328.2,1270.7v-102.8c3.4-0.8,6-3.9,6-7.6c0-4.3-3.5-7.9-7.9-7.9c-4.3,0-7.9,3.5-7.9,7.9
				c0,3.7,2.6,6.8,6,7.6v103.6l20.1,47.2v133.6h3.7v-134.4L1328.2,1270.7z"/>
			<path class="st2" d="M1228.6,1122.5V857.9c3.4-0.8,6-3.9,6-7.6c0-4.3-3.5-7.9-7.9-7.9c-4.3,0-7.9,3.5-7.9,7.9
				c0,3.7,2.6,6.8,6,7.6v265.9l38.3,44.9v283.5h3.7v-284.8L1228.6,1122.5z"/>
			<path class="st2" d="M1217,1180.6v143.2c-3.4,0.8-6,3.9-6,7.6c0,4.3,3.5,7.9,7.9,7.9c4.3,0,7.9-3.5,7.9-7.9c0-3.7-2.6-6.8-6-7.6
				v-139.5h31.3v267.9h3.7v-271.6H1217z"/>
		</g>
		<path class="st2" d="M1067.5,1452.3V688c3.4-0.8,6-3.9,6-7.6c0-4.3-3.5-7.9-7.9-7.9s-7.9,3.5-7.9,7.9c0,3.7,2.6,6.8,6,7.6v764.2
			H1067.5z"/>
		<g>
			<path class="st2" d="M1092.3,656.5v99.9c-3.4,0.8-6,3.9-6,7.6c0,4.3,3.5,7.9,7.9,7.9s7.9-3.5,7.9-7.9c0-3.7-2.6-6.8-6-7.6V652.8
				h-60.7v799.5h3.7V656.5H1092.3z"/>
			<path class="st2" d="M1096,796.7l34.7-36.1V611c3.4-0.8,6-3.9,6-7.6c0-4.3-3.5-7.9-7.9-7.9c-4.3,0-7.9,3.5-7.9,7.9
				c0,3.7,2.6,6.8,6,7.6v148.1l-34.7,36.1v662.6h3.7V796.7z"/>
		</g>
		<path class="st2" d="M1019.6,747.2L988.1,708V529.2c3.4-0.8,6-3.9,6-7.6c0-4.3-3.5-7.9-7.9-7.9c-4.3,0-7.9,3.5-7.9,7.9
			c0,3.7,2.6,6.8,6,7.6v180.1l31.5,39.2v703.8h3.7V747.2z"/>
		<path class="st2" d="M1003.8,759.2l-42.4-53.6v-76.4c3.4-0.8,6-3.9,6-7.6c0-4.3-3.5-7.9-7.9-7.9c-4.3,0-7.9,3.5-7.9,7.9
			c0,3.7,2.6,6.8,6,7.6v77.7l42.4,53.6v691.7h3.7V759.2z"/>
		<path class="st2" d="M894.5,1452.3V649.6c3.4-0.8,6-3.9,6-7.6c0-4.3-3.5-7.9-7.9-7.9c-4.3,0-7.9,3.5-7.9,7.9c0,3.7,2.6,6.8,6,7.6
			v802.7H894.5z"/>
		<g>
			<path class="st2" d="M941,724.1l37.9,48.5v269.8h-31.4V789.3c3.4-0.8,6-3.9,6-7.6c0-4.3-3.5-7.9-7.9-7.9c-4.3,0-7.9,3.5-7.9,7.9
				c0,3.7,2.6,6.8,6,7.6V1046h38.8V771.3l-39.8-50.9h-23.8v731.9h3.7V724.1H941z"/>
			<path class="st2" d="M933.4,679.4V579.2c3.4-0.8,6-3.9,6-7.6c0-4.3-3.5-7.9-7.9-7.9c-4.3,0-7.9,3.5-7.9,7.9c0,3.7,2.6,6.8,6,7.6
				v98.8l-25.9,27.6v746.7h3.7V707L933.4,679.4z"/>
			<path class="st2" d="M980.2,1116c3.4-0.8,6-3.9,6-7.6c0-4.3-3.5-7.9-7.9-7.9c-4.3,0-7.9,3.5-7.9,7.9c0,3.7,2.6,6.8,6,7.6v336.3
				h3.7V1116z"/>
			<path class="st2" d="M941.3,1270.7v-102.8c3.4-0.8,6-3.9,6-7.6c0-4.3-3.5-7.9-7.9-7.9c-4.3,0-7.9,3.5-7.9,7.9
				c0,3.7,2.6,6.8,6,7.6v103.6l20.1,47.2v133.6h3.7v-134.4L941.3,1270.7z"/>
		</g>
		<g>
			<path class="st2" d="M1138.6,1070.6V876.5c3.4-0.8,6-3.9,6-7.6c0-4.3-3.5-7.9-7.9-7.9c-4.3,0-7.9,3.5-7.9,7.9
				c0,3.7,2.6,6.8,6,7.6v193.1l-25.2,38.3v344.4h3.7v-343.3L1138.6,1070.6z"/>
			<path class="st2" d="M1142.3,1229.1c0-4.3-3.5-7.9-7.9-7.9c-4.3,0-7.9,3.5-7.9,7.9c0,3.7,2.6,6.8,6,7.6v215.6h3.7v-215.6
				C1139.7,1235.9,1142.3,1232.8,1142.3,1229.1z"/>
			<path class="st2" d="M1137,1158.9c2.1-1.4,3.4-3.8,3.4-6.5c0-4.3-3.5-7.9-7.9-7.9c-4.3,0-7.9,3.5-7.9,7.9c0,4.3,3.5,7.9,7.9,7.9
				c0.3,0,0.6-0.1,1-0.1l21.3,56.3v235.8h3.7v-236.5L1137,1158.9z"/>
			<path class="st2" d="M1158.5,1141.7V967.2c3.4-0.8,6-3.9,6-7.6c0-4.3-3.5-7.9-7.9-7.9c-4.3,0-7.9,3.5-7.9,7.9
				c0,3.7,2.6,6.8,6,7.6v175.1l23.2,62v247.9h3.7v-248.5L1158.5,1141.7z"/>
			<path class="st2" d="M1194.9,811c3.4-0.8,6-3.9,6-7.6c0-4.3-3.5-7.9-7.9-7.9c-4.3,0-7.9,3.5-7.9,7.9c0,3.7,2.6,6.8,6,7.6v641.2
				h3.7V811z"/>
		</g>
		<g>
			<path class="st2" d="M880,1167.4l-38.3-44.9V857.9c3.4-0.8,6-3.9,6-7.6c0-4.3-3.5-7.9-7.9-7.9c-4.3,0-7.9,3.5-7.9,7.9
				c0,3.7,2.6,6.8,6,7.6v265.9l38.3,44.9v283.5h3.7V1167.4z"/>
			<path class="st2" d="M830.2,1180.6v143.2c-3.4,0.8-6,3.9-6,7.6c0,4.3,3.5,7.9,7.9,7.9c4.3,0,7.9-3.5,7.9-7.9c0-3.7-2.6-6.8-6-7.6
				v-139.5h31.3v267.9h3.7v-271.6H830.2z"/>
		</g>
		<g>
			<path class="st2" d="M714.7,707l25.9-27.6V579.2c3.4-0.8,6-3.9,6-7.6c0-4.3-3.5-7.9-7.9-7.9c-4.3,0-7.9,3.5-7.9,7.9
				c0,3.7,2.6,6.8,6,7.6v98.8L711,705.6v746.7h3.7V707z"/>
			<path class="st2" d="M707.7,641.9c0-4.3-3.5-7.9-7.9-7.9c-4.3,0-7.9,3.5-7.9,7.9c0,3.7,2.6,6.8,6,7.6v802.7h3.7V649.6
				C705.1,648.7,707.7,645.7,707.7,641.9z"/>
		</g>
		<g>
			<path class="st2" d="M811,759.2l-42.4-53.6v-76.4c3.4-0.8,6-3.9,6-7.6c0-4.3-3.5-7.9-7.9-7.9c-4.3,0-7.9,3.5-7.9,7.9
				c0,3.7,2.6,6.8,6,7.6v77.7l42.4,53.6v691.7h3.7V759.2z"/>
			<path class="st2" d="M748.1,724.1l37.9,48.5v269.8h-31.4V789.3c3.4-0.8,6-3.9,6-7.6c0-4.3-3.5-7.9-7.9-7.9
				c-4.3,0-7.9,3.5-7.9,7.9c0,3.7,2.6,6.8,6,7.6V1046h38.8V771.3l-39.8-50.9h-23.8v731.9h3.7V724.1H748.1z"/>
			<path class="st2" d="M793.4,1108.4c0-4.3-3.5-7.9-7.9-7.9c-4.3,0-7.9,3.5-7.9,7.9c0,3.7,2.6,6.8,6,7.6v336.3h3.7V1116
				C790.8,1115.2,793.4,1112.1,793.4,1108.4z"/>
			<path class="st2" d="M748.5,1270.7v-102.8c3.4-0.8,6-3.9,6-7.6c0-4.3-3.5-7.9-7.9-7.9c-4.3,0-7.9,3.5-7.9,7.9
				c0,3.7,2.6,6.8,6,7.6v103.6l20.1,47.2v133.6h3.7v-134.4L748.5,1270.7z"/>
		</g>
		<g>
			<path class="st2" d="M687.2,1167.4l-38.3-44.9V857.9c3.4-0.8,6-3.9,6-7.6c0-4.3-3.5-7.9-7.9-7.9c-4.3,0-7.9,3.5-7.9,7.9
				c0,3.7,2.6,6.8,6,7.6v265.9l38.3,44.9v283.5h3.7V1167.4z"/>
			<path class="st2" d="M637.3,1180.6v143.2c-3.4,0.8-6,3.9-6,7.6c0,4.3,3.5,7.9,7.9,7.9c4.3,0,7.9-3.5,7.9-7.9c0-3.7-2.6-6.8-6-7.6
				v-139.5h31.3v267.9h3.7v-271.6H637.3z"/>
		</g>
		<path class="st2" d="M459.3,656.5h53.3v99.9c-3.4,0.8-6,3.9-6,7.6c0,4.3,3.5,7.9,7.9,7.9c4.3,0,7.9-3.5,7.9-7.9
			c0-3.7-2.6-6.8-6-7.6V652.8h-60.7v799.5h3.7V656.5z"/>
		<path class="st2" d="M487.8,1452.3V688c3.4-0.8,6-3.9,6-7.6c0-4.3-3.5-7.9-7.9-7.9c-4.3,0-7.9,3.5-7.9,7.9c0,3.7,2.6,6.8,6,7.6
			v764.2H487.8z"/>
		<path class="st2" d="M516.3,796.7l34.7-36.1V611c3.4-0.8,6-3.9,6-7.6c0-4.3-3.5-7.9-7.9-7.9c-4.3,0-7.9,3.5-7.9,7.9
			c0,3.7,2.6,6.8,6,7.6v148.1l-34.7,36.1v662.6h3.7V796.7z"/>
		<path class="st2" d="M533.6,1108.9l25.2-38.3V876.5c3.4-0.8,6-3.9,6-7.6c0-4.3-3.5-7.9-7.9-7.9c-4.3,0-7.9,3.5-7.9,7.9
			c0,3.7,2.6,6.8,6,7.6v193.1l-25.2,38.3v344.4h3.7V1108.9z"/>
		<g>
			<path class="st2" d="M557,1229.1c0-4.3-3.5-7.9-7.9-7.9c-4.3,0-7.9,3.5-7.9,7.9c0,3.7,2.6,6.8,6,7.6v215.6h3.7v-215.6
				C554.4,1235.9,557,1232.8,557,1229.1z"/>
			<path class="st2" d="M557.3,1158.9c2.1-1.4,3.4-3.8,3.4-6.5c0-4.3-3.5-7.9-7.9-7.9c-4.3,0-7.9,3.5-7.9,7.9c0,4.3,3.5,7.9,7.9,7.9
				c0.3,0,0.6-0.1,1-0.1l21.3,56.3v235.8h3.7v-236.5L557.3,1158.9z"/>
			<path class="st2" d="M601.9,1203.7l-23.2-62V967.2c3.4-0.8,6-3.9,6-7.6c0-4.3-3.5-7.9-7.9-7.9c-4.3,0-7.9,3.5-7.9,7.9
				c0,3.7,2.6,6.8,6,7.6v175.1l23.2,62v247.9h3.7V1203.7z"/>
		</g>
		<path class="st2" d="M615.2,1452.3V811c3.4-0.8,6-3.9,6-7.6c0-4.3-3.5-7.9-7.9-7.9c-4.3,0-7.9,3.5-7.9,7.9c0,3.7,2.6,6.8,6,7.6
			v641.2H615.2z"/>
		<path class="st2" d="M450,721.5L426.9,695V579.2c3.4-0.8,6-3.9,6-7.6c0-4.3-3.5-7.9-7.9-7.9c-4.3,0-7.9,3.5-7.9,7.9
			c0,3.7,2.6,6.8,6,7.6v117.2l23.2,26.5v729.4h3.7V721.5z"/>
		<g>
			<path class="st2" d="M427.1,1107.8l-25.2-38.3V876.5c3.4-0.8,6-3.9,6-7.6c0-4.3-3.5-7.9-7.9-7.9c-4.3,0-7.9,3.5-7.9,7.9
				c0,3.7,2.6,6.8,6,7.6v194.2l25.2,38.3v343.3h3.7V1107.8z"/>
			<path class="st2" d="M415.8,1229.1c0-4.3-3.5-7.9-7.9-7.9c-4.3,0-7.9,3.5-7.9,7.9c0,3.7,2.6,6.8,6,7.6v215.6h3.7v-215.6
				C413.2,1235.9,415.8,1232.8,415.8,1229.1z"/>
			<path class="st2" d="M403.2,1160.1c0.3,0,0.6,0.1,1,0.1c4.3,0,7.9-3.5,7.9-7.9c0-4.3-3.5-7.9-7.9-7.9c-4.3,0-7.9,3.5-7.9,7.9
				c0,2.7,1.4,5.1,3.4,6.5l-21.5,56.9v236.5h3.7v-235.8L403.2,1160.1z"/>
		</g>
		<g>
			<path class="st2" d="M331,1140.2h-39.8v166.5c-3.4,0.8-6,3.9-6,7.6c0,4.3,3.5,7.9,7.9,7.9c4.3,0,7.9-3.5,7.9-7.9
				c0-3.7-2.6-6.8-6-7.6v-162.8h32.4v308.4h3.7V1140.2z"/>
			<path class="st2" d="M319,1196.7c0-4.3-3.5-7.9-7.9-7.9c-4.3,0-7.9,3.5-7.9,7.9c0,3.7,2.6,6.8,6,7.6v248h3.7v-248
				C316.4,1203.5,319,1200.4,319,1196.7z"/>
		</g>
		<g>
			<path class="st2" d="M358.8,1204.4l23-61.7l0.1-0.3V967.2c3.4-0.8,6-3.9,6-7.6c0-4.3-3.5-7.9-7.9-7.9c-4.3,0-7.9,3.5-7.9,7.9
				c0,3.7,2.6,6.8,6,7.6v174.5l-23,61.7l-0.1,0.3v248.5h3.7V1204.4z"/>
			<path class="st2" d="M351.6,803.4c0-4.3-3.5-7.9-7.9-7.9c-4.3,0-7.9,3.5-7.9,7.9c0,3.7,2.6,6.8,6,7.6v641.2h3.7V811
				C349,810.2,351.6,807.1,351.6,803.4z"/>
		</g>
	</g>
	<g class="st1">
		<g>
			<path class="st2" d="M1753.6,837.1c0-3.7,2.6-6.8,6-7.6V725.8h60.7v799.5h-3.7V729.5h-53.3v99.9c3.4,0.8,6,3.9,6,7.6
				c0,4.3-3.5,7.9-7.9,7.9S1753.6,841.4,1753.6,837.1z"/>
			<path class="st2" d="M1784,753.4c0-4.3,3.5-7.9,7.9-7.9c4.3,0,7.9,3.5,7.9,7.9c0,3.7-2.6,6.8-6,7.6v764.2h-3.7V761
				C1786.5,760.2,1784,757.1,1784,753.4z"/>
			<path class="st2" d="M1761.5,869.7l-34.7-36.1V684c-3.4-0.8-6-3.9-6-7.6c0-4.3,3.5-7.9,7.9-7.9c4.3,0,7.9,3.5,7.9,7.9
				c0,3.7-2.6,6.8-6,7.6v148.1l34.7,36.1v662.6h-3.7V869.7z"/>
			<path class="st2" d="M1867.5,784.7V605.9c-3.4-0.8-6-3.9-6-7.6c0-4.3,3.5-7.9,7.9-7.9c4.3,0,7.9,3.5,7.9,7.9c0,3.7-2.6,6.8-6,7.6
				V786l-31.5,39.2V1529h-3.7V823.9L1867.5,784.7z"/>
			<path class="st2" d="M1897.9,778.7v-76.4c-3.4-0.8-6-3.9-6-7.6c0-4.3,3.5-7.9,7.9-7.9c4.3,0,7.9,3.5,7.9,7.9c0,3.7-2.6,6.8-6,7.6
				V780l-42.4,53.6v691.7h-3.7v-693L1897.9,778.7z"/>
		</g>
		<g>
			<path class="st2" d="M1720.8,1143.7V949.5c-3.4-0.8-6-3.9-6-7.6c0-4.3,3.5-7.9,7.9-7.9c4.3,0,7.9,3.5,7.9,7.9
				c0,3.7-2.6,6.8-6,7.6v193.1l25.2,38.3v344.4h-3.7v-343.3L1720.8,1143.7z"/>
			<path class="st2" d="M1722.6,1302.1c0-4.3,3.5-7.9,7.9-7.9c4.3,0,7.9,3.5,7.9,7.9c0,3.7-2.6,6.8-6,7.6v215.6h-3.7v-215.6
				C1725.2,1308.9,1722.6,1305.8,1722.6,1302.1z"/>
			<path class="st2" d="M1722.4,1231.9c-2.1-1.4-3.4-3.8-3.4-6.5c0-4.3,3.5-7.9,7.9-7.9c4.3,0,7.9,3.5,7.9,7.9
				c0,4.3-3.5,7.9-7.9,7.9c-0.3,0-0.6-0.1-1-0.1l-21.3,56.3v235.8h-3.7v-236.5L1722.4,1231.9z"/>
			<path class="st2" d="M1700.9,1214.7v-174.5c-3.4-0.8-6-3.9-6-7.6c0-4.3,3.5-7.9,7.9-7.9c4.3,0,7.9,3.5,7.9,7.9
				c0,3.7-2.6,6.8-6,7.6v175.1l-23.2,62v247.9h-3.7v-248.5L1700.9,1214.7z"/>
			<path class="st2" d="M1617.5,1216.9v162.8c3.4,0.8,6,3.9,6,7.6c0,4.3-3.5,7.9-7.9,7.9c-4.3,0-7.9-3.5-7.9-7.9
				c0-3.7,2.6-6.8,6-7.6v-166.5h39.8v312.1h-3.7v-308.4H1617.5z"/>
			<path class="st2" d="M1631.9,1277.3c-3.4-0.8-6-3.9-6-7.6c0-4.3,3.5-7.9,7.9-7.9c4.3,0,7.9,3.5,7.9,7.9c0,3.7-2.6,6.8-6,7.6v248
				h-3.7V1277.3z"/>
			<path class="st2" d="M1658.4,876.4c0-4.3,3.5-7.9,7.9-7.9c4.3,0,7.9,3.5,7.9,7.9c0,3.7-2.6,6.8-6,7.6v641.2h-3.7V884
				C1661,883.2,1658.4,880.1,1658.4,876.4z"/>
		</g>
		<g>
			<path class="st2" d="M1918.4,797.1l-37.9,48.5v269.8h31.4V862.3c-3.4-0.8-6-3.9-6-7.6c0-4.3,3.5-7.9,7.9-7.9
				c4.3,0,7.9,3.5,7.9,7.9c0,3.7-2.6,6.8-6,7.6V1119h-38.8V844.3l39.8-50.9h23.8v731.9h-3.7V797.1H1918.4z"/>
			<path class="st2" d="M1925.9,752.4V652.2c-3.4-0.8-6-3.9-6-7.6c0-4.3,3.5-7.9,7.9-7.9c4.3,0,7.9,3.5,7.9,7.9c0,3.7-2.6,6.8-6,7.6
				V751l25.9,27.6v746.7h-3.7V780L1925.9,752.4z"/>
			<path class="st2" d="M1958.8,714.9c0-4.3,3.5-7.9,7.9-7.9c4.3,0,7.9,3.5,7.9,7.9c0,3.7-2.6,6.8-6,7.6v802.7h-3.7V722.6
				C1961.3,721.7,1958.8,718.7,1958.8,714.9z"/>
			<path class="st2" d="M1879.1,1189c-3.4-0.8-6-3.9-6-7.6c0-4.3,3.5-7.9,7.9-7.9c4.3,0,7.9,3.5,7.9,7.9c0,3.7-2.6,6.8-6,7.6v336.3
				h-3.7V1189z"/>
			<path class="st2" d="M1918,1343.7v-102.8c-3.4-0.8-6-3.9-6-7.6c0-4.3,3.5-7.9,7.9-7.9c4.3,0,7.9,3.5,7.9,7.9c0,3.7-2.6,6.8-6,7.6
				v103.6l-20.1,47.2v133.6h-3.7v-134.4L1918,1343.7z"/>
			<path class="st2" d="M2017.6,1195.5V930.9c-3.4-0.8-6-3.9-6-7.6c0-4.3,3.5-7.9,7.9-7.9c4.3,0,7.9,3.5,7.9,7.9
				c0,3.7-2.6,6.8-6,7.6v265.9l-38.3,44.9v283.5h-3.7v-284.8L2017.6,1195.5z"/>
			<path class="st2" d="M2029.2,1253.6v143.2c3.4,0.8,6,3.9,6,7.6c0,4.3-3.5,7.9-7.9,7.9c-4.3,0-7.9-3.5-7.9-7.9
				c0-3.7,2.6-6.8,6-7.6v-139.5h-31.3v267.9h-3.7v-271.6H2029.2z"/>
		</g>
		<path class="st2" d="M2178.7,1525.3V761c-3.4-0.8-6-3.9-6-7.6c0-4.3,3.5-7.9,7.9-7.9c4.3,0,7.9,3.5,7.9,7.9c0,3.7-2.6,6.8-6,7.6
			v764.2H2178.7z"/>
		<g>
			<path class="st2" d="M2153.9,729.5v99.9c3.4,0.8,6,3.9,6,7.6c0,4.3-3.5,7.9-7.9,7.9c-4.3,0-7.9-3.5-7.9-7.9c0-3.7,2.6-6.8,6-7.6
				V725.8h60.7v799.5h-3.7V729.5H2153.9z"/>
			<path class="st2" d="M2150.2,869.7l-34.7-36.1V684c-3.4-0.8-6-3.9-6-7.6c0-4.3,3.5-7.9,7.9-7.9c4.3,0,7.9,3.5,7.9,7.9
				c0,3.7-2.6,6.8-6,7.6v148.1l34.7,36.1v662.6h-3.7V869.7z"/>
		</g>
		<path class="st2" d="M2226.6,820.2l31.5-39.2V602.2c-3.4-0.8-6-3.9-6-7.6c0-4.3,3.5-7.9,7.9-7.9c4.3,0,7.9,3.5,7.9,7.9
			c0,3.7-2.6,6.8-6,7.6v180.1l-31.5,39.2v703.8h-3.7V820.2z"/>
		<path class="st2" d="M2242.4,832.2l42.4-53.6v-76.4c-3.4-0.8-6-3.9-6-7.6c0-4.3,3.5-7.9,7.9-7.9c4.3,0,7.9,3.5,7.9,7.9
			c0,3.7-2.6,6.8-6,7.6V780l-42.4,53.6v691.7h-3.7V832.2z"/>
		<path class="st2" d="M2351.6,1525.3V722.6c-3.4-0.8-6-3.9-6-7.6c0-4.3,3.5-7.9,7.9-7.9c4.3,0,7.9,3.5,7.9,7.9c0,3.7-2.6,6.8-6,7.6
			v802.7H2351.6z"/>
		<g>
			<path class="st2" d="M2305.2,797.1l-37.9,48.5v269.8h31.4V862.3c-3.4-0.8-6-3.9-6-7.6c0-4.3,3.5-7.9,7.9-7.9
				c4.3,0,7.9,3.5,7.9,7.9c0,3.7-2.6,6.8-6,7.6V1119h-38.8V844.3l39.8-50.9h23.8v731.9h-3.7V797.1H2305.2z"/>
			<path class="st2" d="M2312.8,752.4V652.2c-3.4-0.8-6-3.9-6-7.6c0-4.3,3.5-7.9,7.9-7.9c4.3,0,7.9,3.5,7.9,7.9c0,3.7-2.6,6.8-6,7.6
				V751l25.9,27.6v746.7h-3.7V780L2312.8,752.4z"/>
			<path class="st2" d="M2266,1189c-3.4-0.8-6-3.9-6-7.6c0-4.3,3.5-7.9,7.9-7.9c4.3,0,7.9,3.5,7.9,7.9c0,3.7-2.6,6.8-6,7.6v336.3
				h-3.7V1189z"/>
			<path class="st2" d="M2304.9,1343.7v-102.8c-3.4-0.8-6-3.9-6-7.6c0-4.3,3.5-7.9,7.9-7.9c4.3,0,7.9,3.5,7.9,7.9
				c0,3.7-2.6,6.8-6,7.6v103.6l-20.1,47.2v133.6h-3.7v-134.4L2304.9,1343.7z"/>
		</g>
		<g>
			<path class="st2" d="M2107.6,1143.7V949.5c-3.4-0.8-6-3.9-6-7.6c0-4.3,3.5-7.9,7.9-7.9c4.3,0,7.9,3.5,7.9,7.9
				c0,3.7-2.6,6.8-6,7.6v193.1l25.2,38.3v344.4h-3.7v-343.3L2107.6,1143.7z"/>
			<path class="st2" d="M2103.9,1302.1c0-4.3,3.5-7.9,7.9-7.9c4.3,0,7.9,3.5,7.9,7.9c0,3.7-2.6,6.8-6,7.6v215.6h-3.7v-215.6
				C2106.5,1308.9,2103.9,1305.8,2103.9,1302.1z"/>
			<path class="st2" d="M2109.2,1231.9c-2.1-1.4-3.4-3.8-3.4-6.5c0-4.3,3.5-7.9,7.9-7.9c4.3,0,7.9,3.5,7.9,7.9
				c0,4.3-3.5,7.9-7.9,7.9c-0.3,0-0.6-0.1-1-0.1l-21.3,56.3v235.8h-3.7v-236.5L2109.2,1231.9z"/>
			<path class="st2" d="M2087.7,1214.7v-174.5c-3.4-0.8-6-3.9-6-7.6c0-4.3,3.5-7.9,7.9-7.9c4.3,0,7.9,3.5,7.9,7.9
				c0,3.7-2.6,6.8-6,7.6v175.1l-23.2,62v247.9h-3.7v-248.5L2087.7,1214.7z"/>
			<path class="st2" d="M2051.3,884c-3.4-0.8-6-3.9-6-7.6c0-4.3,3.5-7.9,7.9-7.9c4.3,0,7.9,3.5,7.9,7.9c0,3.7-2.6,6.8-6,7.6v641.2
				h-3.7V884z"/>
		</g>
		<g>
			<path class="st2" d="M2366.2,1240.4l38.3-44.9V930.9c-3.4-0.8-6-3.9-6-7.6c0-4.3,3.5-7.9,7.9-7.9s7.9,3.5,7.9,7.9
				c0,3.7-2.6,6.8-6,7.6v265.9l-38.3,44.9v283.5h-3.7V1240.4z"/>
			<path class="st2" d="M2416,1253.6v143.2c3.4,0.8,6,3.9,6,7.6c0,4.3-3.5,7.9-7.9,7.9s-7.9-3.5-7.9-7.9c0-3.7,2.6-6.8,6-7.6v-139.5
				H2381v267.9h-3.7v-271.6H2416z"/>
		</g>
		<g>
			<path class="st2" d="M2531.5,780l-25.9-27.6V652.2c-3.4-0.8-6-3.9-6-7.6c0-4.3,3.5-7.9,7.9-7.9c4.3,0,7.9,3.5,7.9,7.9
				c0,3.7-2.6,6.8-6,7.6V751l25.9,27.6v746.7h-3.7V780z"/>
			<path class="st2" d="M2538.5,714.9c0-4.3,3.5-7.9,7.9-7.9c4.3,0,7.9,3.5,7.9,7.9c0,3.7-2.6,6.8-6,7.6v802.7h-3.7V722.6
				C2541.1,721.7,2538.5,718.7,2538.5,714.9z"/>
		</g>
		<g>
			<path class="st2" d="M2435.2,832.2l42.4-53.6v-76.4c-3.4-0.8-6-3.9-6-7.6c0-4.3,3.5-7.9,7.9-7.9c4.3,0,7.9,3.5,7.9,7.9
				c0,3.7-2.6,6.8-6,7.6V780l-42.4,53.6v691.7h-3.7V832.2z"/>
			<path class="st2" d="M2498.1,797.1l-37.9,48.5v269.8h31.4V862.3c-3.4-0.8-6-3.9-6-7.6c0-4.3,3.5-7.9,7.9-7.9
				c4.3,0,7.9,3.5,7.9,7.9c0,3.7-2.6,6.8-6,7.6V1119h-38.8V844.3l39.8-50.9h23.8v731.9h-3.7V797.1H2498.1z"/>
			<path class="st2" d="M2452.8,1181.4c0-4.3,3.5-7.9,7.9-7.9c4.3,0,7.9,3.5,7.9,7.9c0,3.7-2.6,6.8-6,7.6v336.3h-3.7V1189
				C2455.4,1188.2,2452.8,1185.1,2452.8,1181.4z"/>
			<path class="st2" d="M2497.7,1343.7v-102.8c-3.4-0.8-6-3.9-6-7.6c0-4.3,3.5-7.9,7.9-7.9c4.3,0,7.9,3.5,7.9,7.9
				c0,3.7-2.6,6.8-6,7.6v103.6l-20.1,47.2v133.6h-3.7v-134.4L2497.7,1343.7z"/>
		</g>
		<g>
			<path class="st2" d="M2559,1240.4l38.3-44.9V930.9c-3.4-0.8-6-3.9-6-7.6c0-4.3,3.5-7.9,7.9-7.9s7.9,3.5,7.9,7.9
				c0,3.7-2.6,6.8-6,7.6v265.9l-38.3,44.9v283.5h-3.7V1240.4z"/>
			<path class="st2" d="M2608.9,1253.6v143.2c3.4,0.8,6,3.9,6,7.6c0,4.3-3.5,7.9-7.9,7.9s-7.9-3.5-7.9-7.9c0-3.7,2.6-6.8,6-7.6
				v-139.5h-31.3v267.9h-3.7v-271.6H2608.9z"/>
		</g>
		<path class="st2" d="M2786.9,729.5h-53.3v99.9c3.4,0.8,6,3.9,6,7.6c0,4.3-3.5,7.9-7.9,7.9s-7.9-3.5-7.9-7.9c0-3.7,2.6-6.8,6-7.6
			V725.8h60.7v799.5h-3.7V729.5z"/>
		<path class="st2" d="M2758.4,1525.3V761c-3.4-0.8-6-3.9-6-7.6c0-4.3,3.5-7.9,7.9-7.9c4.3,0,7.9,3.5,7.9,7.9c0,3.7-2.6,6.8-6,7.6
			v764.2H2758.4z"/>
		<path class="st2" d="M2729.9,869.7l-34.7-36.1V684c-3.4-0.8-6-3.9-6-7.6c0-4.3,3.5-7.9,7.9-7.9c4.3,0,7.9,3.5,7.9,7.9
			c0,3.7-2.6,6.8-6,7.6v148.1l34.7,36.1v662.6h-3.7V869.7z"/>
		<path class="st2" d="M2712.6,1181.9l-25.2-38.3V949.5c-3.4-0.8-6-3.9-6-7.6c0-4.3,3.5-7.9,7.9-7.9c4.3,0,7.9,3.5,7.9,7.9
			c0,3.7-2.6,6.8-6,7.6v193.1l25.2,38.3v344.4h-3.7V1181.9z"/>
		<g>
			<path class="st2" d="M2689.2,1302.1c0-4.3,3.5-7.9,7.9-7.9c4.3,0,7.9,3.5,7.9,7.9c0,3.7-2.6,6.8-6,7.6v215.6h-3.7v-215.6
				C2691.8,1308.9,2689.2,1305.8,2689.2,1302.1z"/>
			<path class="st2" d="M2688.9,1231.9c-2.1-1.4-3.4-3.8-3.4-6.5c0-4.3,3.5-7.9,7.9-7.9s7.9,3.5,7.9,7.9c0,4.3-3.5,7.9-7.9,7.9
				c-0.3,0-0.6-0.1-1-0.1l-21.3,56.3v235.8h-3.7v-236.5L2688.9,1231.9z"/>
			<path class="st2" d="M2644.3,1276.7l23.2-62v-174.5c-3.4-0.8-6-3.9-6-7.6c0-4.3,3.5-7.9,7.9-7.9c4.3,0,7.9,3.5,7.9,7.9
				c0,3.7-2.6,6.8-6,7.6v175.1l-23.2,62v247.9h-3.7V1276.7z"/>
		</g>
		<path class="st2" d="M2631,1525.3V884c-3.4-0.8-6-3.9-6-7.6c0-4.3,3.5-7.9,7.9-7.9c4.3,0,7.9,3.5,7.9,7.9c0,3.7-2.6,6.8-6,7.6
			v641.2H2631z"/>
		<path class="st2" d="M2796.2,794.5l23.2-26.5V652.2c-3.4-0.8-6-3.9-6-7.6c0-4.3,3.5-7.9,7.9-7.9c4.3,0,7.9,3.5,7.9,7.9
			c0,3.7-2.6,6.8-6,7.6v117.2l-23.2,26.5v729.4h-3.7V794.5z"/>
		<g>
			<path class="st2" d="M2819.1,1180.8l25.2-38.3V949.5c-3.4-0.8-6-3.9-6-7.6c0-4.3,3.5-7.9,7.9-7.9c4.3,0,7.9,3.5,7.9,7.9
				c0,3.7-2.6,6.8-6,7.6v194.2l-25.2,38.3v343.3h-3.7V1180.8z"/>
			<path class="st2" d="M2830.4,1302.1c0-4.3,3.5-7.9,7.9-7.9c4.3,0,7.9,3.5,7.9,7.9c0,3.7-2.6,6.8-6,7.6v215.6h-3.7v-215.6
				C2833,1308.9,2830.4,1305.8,2830.4,1302.1z"/>
			<path class="st2" d="M2842.9,1233.1c-0.3,0-0.6,0.1-1,0.1c-4.3,0-7.9-3.5-7.9-7.9c0-4.3,3.5-7.9,7.9-7.9s7.9,3.5,7.9,7.9
				c0,2.7-1.4,5.1-3.4,6.5l21.5,56.9v236.5h-3.7v-235.8L2842.9,1233.1z"/>
		</g>
		<g>
			<path class="st2" d="M2915.2,1213.2h39.8v166.5c3.4,0.8,6,3.9,6,7.6c0,4.3-3.5,7.9-7.9,7.9c-4.3,0-7.9-3.5-7.9-7.9
				c0-3.7,2.6-6.8,6-7.6v-162.8h-32.4v308.4h-3.7V1213.2z"/>
			<path class="st2" d="M2927.2,1269.7c0-4.3,3.5-7.9,7.9-7.9s7.9,3.5,7.9,7.9c0,3.7-2.6,6.8-6,7.6v248h-3.7v-248
				C2929.8,1276.5,2927.2,1273.4,2927.2,1269.7z"/>
		</g>
		<g>
			<path class="st2" d="M2887.4,1277.4l-23-61.7l-0.1-0.3v-175.1c-3.4-0.8-6-3.9-6-7.6c0-4.3,3.5-7.9,7.9-7.9s7.9,3.5,7.9,7.9
				c0,3.7-2.6,6.8-6,7.6v174.5l23,61.7l0.1,0.3v248.5h-3.7V1277.4z"/>
			<path class="st2" d="M2894.6,876.4c0-4.3,3.5-7.9,7.9-7.9c4.3,0,7.9,3.5,7.9,7.9c0,3.7-2.6,6.8-6,7.6v641.2h-3.7V884
				C2897.2,883.2,2894.6,880.1,2894.6,876.4z"/>
		</g>
	</g>
	<g class="st1">
		<g>
			<path class="st2" d="M-862.6,858.1c0-3.7,2.6-6.8,6-7.6V746.8h60.7v799.5h-3.7V750.5h-53.3v99.9c3.4,0.8,6,3.9,6,7.6
				c0,4.3-3.5,7.9-7.9,7.9C-859.1,865.9-862.6,862.4-862.6,858.1z"/>
			<path class="st2" d="M-832.3,774.4c0-4.3,3.5-7.9,7.9-7.9c4.3,0,7.9,3.5,7.9,7.9c0,3.7-2.6,6.8-6,7.6v764.2h-3.7V782
				C-829.7,781.2-832.3,778.1-832.3,774.4z"/>
			<path class="st2" d="M-854.8,890.7l-34.7-36.1V705c-3.4-0.8-6-3.9-6-7.6c0-4.3,3.5-7.9,7.9-7.9c4.3,0,7.9,3.5,7.9,7.9
				c0,3.7-2.6,6.8-6,7.6v148.1l34.7,36.1v662.6h-3.7V890.7z"/>
			<path class="st2" d="M-748.7,805.7V626.9c-3.4-0.8-6-3.9-6-7.6c0-4.3,3.5-7.9,7.9-7.9c4.3,0,7.9,3.5,7.9,7.9c0,3.7-2.6,6.8-6,7.6
				V807l-31.5,39.2V1550h-3.7V844.9L-748.7,805.7z"/>
			<path class="st2" d="M-718.3,799.7v-76.4c-3.4-0.8-6-3.9-6-7.6c0-4.3,3.5-7.9,7.9-7.9c4.3,0,7.9,3.5,7.9,7.9c0,3.7-2.6,6.8-6,7.6
				V801l-42.4,53.6v691.7h-3.7v-693L-718.3,799.7z"/>
		</g>
		<g>
			<path class="st2" d="M-895.5,1164.7V970.5c-3.4-0.8-6-3.9-6-7.6c0-4.3,3.5-7.9,7.9-7.9c4.3,0,7.9,3.5,7.9,7.9
				c0,3.7-2.6,6.8-6,7.6v193.1l25.2,38.3v344.4h-3.7v-343.3L-895.5,1164.7z"/>
			<path class="st2" d="M-893.6,1323.1c0-4.3,3.5-7.9,7.9-7.9c4.3,0,7.9,3.5,7.9,7.9c0,3.7-2.6,6.8-6,7.6v215.6h-3.7v-215.6
				C-891.1,1329.9-893.6,1326.8-893.6,1323.1z"/>
			<path class="st2" d="M-893.9,1252.9c-2.1-1.4-3.4-3.8-3.4-6.5c0-4.3,3.5-7.9,7.9-7.9c4.3,0,7.9,3.5,7.9,7.9
				c0,4.3-3.5,7.9-7.9,7.9c-0.3,0-0.6-0.1-1-0.1l-21.3,56.3v235.8h-3.7v-236.5L-893.9,1252.9z"/>
			<path class="st2" d="M-915.4,1235.7v-174.5c-3.4-0.8-6-3.9-6-7.6c0-4.3,3.5-7.9,7.9-7.9c4.3,0,7.9,3.5,7.9,7.9
				c0,3.7-2.6,6.8-6,7.6v175.1l-23.2,62v247.9h-3.7v-248.5L-915.4,1235.7z"/>
			<path class="st2" d="M-998.7,1237.9v162.8c3.4,0.8,6,3.9,6,7.6c0,4.3-3.5,7.9-7.9,7.9c-4.3,0-7.9-3.5-7.9-7.9
				c0-3.7,2.6-6.8,6-7.6v-166.5h39.8v312.1h-3.7v-308.4H-998.7z"/>
			<path class="st2" d="M-984.4,1298.3c-3.4-0.8-6-3.9-6-7.6c0-4.3,3.5-7.9,7.9-7.9c4.3,0,7.9,3.5,7.9,7.9c0,3.7-2.6,6.8-6,7.6v248
				h-3.7V1298.3z"/>
			<path class="st2" d="M-957.8,897.4c0-4.3,3.5-7.9,7.9-7.9c4.3,0,7.9,3.5,7.9,7.9c0,3.7-2.6,6.8-6,7.6v641.2h-3.7V905
				C-955.3,904.2-957.8,901.1-957.8,897.4z"/>
		</g>
		<g>
			<path class="st2" d="M-697.9,818.1l-37.9,48.5v269.8h31.4V883.3c-3.4-0.8-6-3.9-6-7.6c0-4.3,3.5-7.9,7.9-7.9
				c4.3,0,7.9,3.5,7.9,7.9c0,3.7-2.6,6.8-6,7.6V1140h-38.8V865.3l39.8-50.9h23.8v731.9h-3.7V818.1H-697.9z"/>
			<path class="st2" d="M-690.4,773.4V673.2c-3.4-0.8-6-3.9-6-7.6c0-4.3,3.5-7.9,7.9-7.9c4.3,0,7.9,3.5,7.9,7.9c0,3.7-2.6,6.8-6,7.6
				V772l25.9,27.6v746.7h-3.7V801L-690.4,773.4z"/>
			<path class="st2" d="M-657.5,736c0-4.3,3.5-7.9,7.9-7.9c4.3,0,7.9,3.5,7.9,7.9c0,3.7-2.6,6.8-6,7.6v802.7h-3.7V743.6
				C-654.9,742.7-657.5,739.7-657.5,736z"/>
			<path class="st2" d="M-737.1,1210c-3.4-0.8-6-3.9-6-7.6c0-4.3,3.5-7.9,7.9-7.9c4.3,0,7.9,3.5,7.9,7.9c0,3.7-2.6,6.8-6,7.6v336.3
				h-3.7V1210z"/>
			<path class="st2" d="M-698.2,1364.7v-102.8c-3.4-0.8-6-3.9-6-7.6c0-4.3,3.5-7.9,7.9-7.9c4.3,0,7.9,3.5,7.9,7.9
				c0,3.7-2.6,6.8-6,7.6v103.6l-20.1,47.2v133.6h-3.7v-134.4L-698.2,1364.7z"/>
			<path class="st2" d="M-598.7,1216.5V951.9c-3.4-0.8-6-3.9-6-7.6c0-4.3,3.5-7.9,7.9-7.9c4.3,0,7.9,3.5,7.9,7.9
				c0,3.7-2.6,6.8-6,7.6v265.9l-38.3,44.9v283.5h-3.7v-284.8L-598.7,1216.5z"/>
			<path class="st2" d="M-587.1,1274.6v143.2c3.4,0.8,6,3.9,6,7.6c0,4.3-3.5,7.9-7.9,7.9c-4.3,0-7.9-3.5-7.9-7.9
				c0-3.7,2.6-6.8,6-7.6v-139.5h-31.3v267.9h-3.7v-271.6H-587.1z"/>
		</g>
		<path class="st2" d="M-437.6,1546.3V782c-3.4-0.8-6-3.9-6-7.6c0-4.3,3.5-7.9,7.9-7.9s7.9,3.5,7.9,7.9c0,3.7-2.6,6.8-6,7.6v764.2
			H-437.6z"/>
		<g>
			<path class="st2" d="M-462.3,750.5v99.9c3.4,0.8,6,3.9,6,7.6c0,4.3-3.5,7.9-7.9,7.9s-7.9-3.5-7.9-7.9c0-3.7,2.6-6.8,6-7.6V746.8
				h60.7v799.5h-3.7V750.5H-462.3z"/>
			<path class="st2" d="M-466,890.7l-34.7-36.1V705c-3.4-0.8-6-3.9-6-7.6c0-4.3,3.5-7.9,7.9-7.9c4.3,0,7.9,3.5,7.9,7.9
				c0,3.7-2.6,6.8-6,7.6v148.1l34.7,36.1v662.6h-3.7V890.7z"/>
		</g>
		<path class="st2" d="M-389.6,841.2l31.5-39.2V623.2c-3.4-0.8-6-3.9-6-7.6c0-4.3,3.5-7.9,7.9-7.9c4.3,0,7.9,3.5,7.9,7.9
			c0,3.7-2.6,6.8-6,7.6v180.1l-31.5,39.2v703.8h-3.7V841.2z"/>
		<path class="st2" d="M-373.9,853.2l42.4-53.6v-76.4c-3.4-0.8-6-3.9-6-7.6c0-4.3,3.5-7.9,7.9-7.9c4.3,0,7.9,3.5,7.9,7.9
			c0,3.7-2.6,6.8-6,7.6V801l-42.4,53.6v691.7h-3.7V853.2z"/>
		<path class="st2" d="M-264.6,1546.3V743.6c-3.4-0.8-6-3.9-6-7.6c0-4.3,3.5-7.9,7.9-7.9c4.3,0,7.9,3.5,7.9,7.9c0,3.7-2.6,6.8-6,7.6
			v802.7H-264.6z"/>
		<g>
			<path class="st2" d="M-311,818.1l-37.9,48.5v269.8h31.4V883.3c-3.4-0.8-6-3.9-6-7.6c0-4.3,3.5-7.9,7.9-7.9c4.3,0,7.9,3.5,7.9,7.9
				c0,3.7-2.6,6.8-6,7.6V1140h-38.8V865.3l39.8-50.9h23.8v731.9h-3.7V818.1H-311z"/>
			<path class="st2" d="M-303.5,773.4V673.2c-3.4-0.8-6-3.9-6-7.6c0-4.3,3.5-7.9,7.9-7.9c4.3,0,7.9,3.5,7.9,7.9c0,3.7-2.6,6.8-6,7.6
				V772l25.9,27.6v746.7h-3.7V801L-303.5,773.4z"/>
			<path class="st2" d="M-350.3,1210c-3.4-0.8-6-3.9-6-7.6c0-4.3,3.5-7.9,7.9-7.9c4.3,0,7.9,3.5,7.9,7.9c0,3.7-2.6,6.8-6,7.6v336.3
				h-3.7V1210z"/>
			<path class="st2" d="M-311.4,1364.7v-102.8c-3.4-0.8-6-3.9-6-7.6c0-4.3,3.5-7.9,7.9-7.9c4.3,0,7.9,3.5,7.9,7.9
				c0,3.7-2.6,6.8-6,7.6v103.6l-20.1,47.2v133.6h-3.7v-134.4L-311.4,1364.7z"/>
		</g>
		<g>
			<path class="st2" d="M-508.6,1164.7V970.5c-3.4-0.8-6-3.9-6-7.6c0-4.3,3.5-7.9,7.9-7.9c4.3,0,7.9,3.5,7.9,7.9
				c0,3.7-2.6,6.8-6,7.6v193.1l25.2,38.3v344.4h-3.7v-343.3L-508.6,1164.7z"/>
			<path class="st2" d="M-512.3,1323.1c0-4.3,3.5-7.9,7.9-7.9c4.3,0,7.9,3.5,7.9,7.9c0,3.7-2.6,6.8-6,7.6v215.6h-3.7v-215.6
				C-509.8,1329.9-512.3,1326.8-512.3,1323.1z"/>
			<path class="st2" d="M-507,1252.9c-2.1-1.4-3.4-3.8-3.4-6.5c0-4.3,3.5-7.9,7.9-7.9c4.3,0,7.9,3.5,7.9,7.9c0,4.3-3.5,7.9-7.9,7.9
				c-0.3,0-0.6-0.1-1-0.1l-21.3,56.3v235.8h-3.7v-236.5L-507,1252.9z"/>
			<path class="st2" d="M-528.5,1235.7v-174.5c-3.4-0.8-6-3.9-6-7.6c0-4.3,3.5-7.9,7.9-7.9c4.3,0,7.9,3.5,7.9,7.9
				c0,3.7-2.6,6.8-6,7.6v175.1l-23.2,62v247.9h-3.7v-248.5L-528.5,1235.7z"/>
			<path class="st2" d="M-565,905c-3.4-0.8-6-3.9-6-7.6c0-4.3,3.5-7.9,7.9-7.9c4.3,0,7.9,3.5,7.9,7.9c0,3.7-2.6,6.8-6,7.6v641.2
				h-3.7V905z"/>
		</g>
		<g>
			<path class="st2" d="M-250.1,1261.4l38.3-44.9V951.9c-3.4-0.8-6-3.9-6-7.6c0-4.3,3.5-7.9,7.9-7.9c4.3,0,7.9,3.5,7.9,7.9
				c0,3.7-2.6,6.8-6,7.6v265.9l-38.3,44.9v283.5h-3.7V1261.4z"/>
			<path class="st2" d="M-200.2,1274.6v143.2c3.4,0.8,6,3.9,6,7.6c0,4.3-3.5,7.9-7.9,7.9c-4.3,0-7.9-3.5-7.9-7.9
				c0-3.7,2.6-6.8,6-7.6v-139.5h-31.3v267.9h-3.7v-271.6H-200.2z"/>
		</g>
		<g>
			<path class="st2" d="M-84.7,801l-25.9-27.6V673.2c-3.4-0.8-6-3.9-6-7.6c0-4.3,3.5-7.9,7.9-7.9c4.3,0,7.9,3.5,7.9,7.9
				c0,3.7-2.6,6.8-6,7.6V772l25.9,27.6v746.7h-3.7V801z"/>
			<path class="st2" d="M-77.8,736c0-4.3,3.5-7.9,7.9-7.9c4.3,0,7.9,3.5,7.9,7.9c0,3.7-2.6,6.8-6,7.6v802.7h-3.7V743.6
				C-75.2,742.7-77.8,739.7-77.8,736z"/>
		</g>
		<g>
			<path class="st2" d="M-181,853.2l42.4-53.6v-76.4c-3.4-0.8-6-3.9-6-7.6c0-4.3,3.5-7.9,7.9-7.9c4.3,0,7.9,3.5,7.9,7.9
				c0,3.7-2.6,6.8-6,7.6V801l-42.4,53.6v691.7h-3.7V853.2z"/>
			<path class="st2" d="M-118.2,818.1l-37.9,48.5v269.8h31.4V883.3c-3.4-0.8-6-3.9-6-7.6c0-4.3,3.5-7.9,7.9-7.9
				c4.3,0,7.9,3.5,7.9,7.9c0,3.7-2.6,6.8-6,7.6V1140h-38.8V865.3l39.8-50.9h23.8v731.9h-3.7V818.1H-118.2z"/>
			<path class="st2" d="M-163.4,1202.4c0-4.3,3.5-7.9,7.9-7.9c4.3,0,7.9,3.5,7.9,7.9c0,3.7-2.6,6.8-6,7.6v336.3h-3.7V1210
				C-160.9,1209.2-163.4,1206.1-163.4,1202.4z"/>
			<path class="st2" d="M-118.5,1364.7v-102.8c-3.4-0.8-6-3.9-6-7.6c0-4.3,3.5-7.9,7.9-7.9c4.3,0,7.9,3.5,7.9,7.9
				c0,3.7-2.6,6.8-6,7.6v103.6l-20.1,47.2v133.6h-3.7v-134.4L-118.5,1364.7z"/>
		</g>
		<g>
			<path class="st2" d="M-57.2,1261.4l38.3-44.9V951.9c-3.4-0.8-6-3.9-6-7.6c0-4.3,3.5-7.9,7.9-7.9c4.3,0,7.9,3.5,7.9,7.9
				c0,3.7-2.6,6.8-6,7.6v265.9l-38.3,44.9v283.5h-3.7V1261.4z"/>
			<path class="st2" d="M-7.4,1274.6v143.2c3.4,0.8,6,3.9,6,7.6c0,4.3-3.5,7.9-7.9,7.9c-4.3,0-7.9-3.5-7.9-7.9c0-3.7,2.6-6.8,6-7.6
				v-139.5h-31.3v267.9h-3.7v-271.6H-7.4z"/>
		</g>
		<path class="st2" d="M170.7,750.5h-53.3v99.9c3.4,0.8,6,3.9,6,7.6c0,4.3-3.5,7.9-7.9,7.9s-7.9-3.5-7.9-7.9c0-3.7,2.6-6.8,6-7.6
			V746.8h60.7v799.5h-3.7V750.5z"/>
		<path class="st2" d="M142.2,1546.3V782c-3.4-0.8-6-3.9-6-7.6c0-4.3,3.5-7.9,7.9-7.9c4.3,0,7.9,3.5,7.9,7.9c0,3.7-2.6,6.8-6,7.6
			v764.2H142.2z"/>
		<path class="st2" d="M113.7,890.7L79,854.6V705c-3.4-0.8-6-3.9-6-7.6c0-4.3,3.5-7.9,7.9-7.9c4.3,0,7.9,3.5,7.9,7.9
			c0,3.7-2.6,6.8-6,7.6v148.1l34.7,36.1v662.6h-3.7V890.7z"/>
		<path class="st2" d="M96.3,1202.9l-25.2-38.3V970.5c-3.4-0.8-6-3.9-6-7.6c0-4.3,3.5-7.9,7.9-7.9c4.3,0,7.9,3.5,7.9,7.9
			c0,3.7-2.6,6.8-6,7.6v193.1l25.2,38.3v344.4h-3.7V1202.9z"/>
		<g>
			<path class="st2" d="M72.9,1323.1c0-4.3,3.5-7.9,7.9-7.9c4.3,0,7.9,3.5,7.9,7.9c0,3.7-2.6,6.8-6,7.6v215.6H79v-215.6
				C75.5,1329.9,72.9,1326.8,72.9,1323.1z"/>
			<path class="st2" d="M72.7,1252.9c-2.1-1.4-3.4-3.8-3.4-6.5c0-4.3,3.5-7.9,7.9-7.9c4.3,0,7.9,3.5,7.9,7.9c0,4.3-3.5,7.9-7.9,7.9
				c-0.3,0-0.6-0.1-1-0.1l-21.3,56.3v235.8h-3.7v-236.5L72.7,1252.9z"/>
			<path class="st2" d="M28,1297.7l23.2-62v-174.5c-3.4-0.8-6-3.9-6-7.6c0-4.3,3.5-7.9,7.9-7.9c4.3,0,7.9,3.5,7.9,7.9
				c0,3.7-2.6,6.8-6,7.6v175.1l-23.2,62v247.9H28V1297.7z"/>
		</g>
		<path class="st2" d="M14.8,1546.3V905c-3.4-0.8-6-3.9-6-7.6c0-4.3,3.5-7.9,7.9-7.9c4.3,0,7.9,3.5,7.9,7.9c0,3.7-2.6,6.8-6,7.6
			v641.2H14.8z"/>
		<path class="st2" d="M179.9,815.5L203,789V673.2c-3.4-0.8-6-3.9-6-7.6c0-4.3,3.5-7.9,7.9-7.9c4.3,0,7.9,3.5,7.9,7.9
			c0,3.7-2.6,6.8-6,7.6v117.2l-23.2,26.5v729.4h-3.7V815.5z"/>
		<g>
			<path class="st2" d="M202.8,1201.8l25.2-38.3V970.5c-3.4-0.8-6-3.9-6-7.6c0-4.3,3.5-7.9,7.9-7.9c4.3,0,7.9,3.5,7.9,7.9
				c0,3.7-2.6,6.8-6,7.6v194.2l-25.2,38.3v343.3h-3.7V1201.8z"/>
			<path class="st2" d="M214.2,1323.1c0-4.3,3.5-7.9,7.9-7.9c4.3,0,7.9,3.5,7.9,7.9c0,3.7-2.6,6.8-6,7.6v215.6h-3.7v-215.6
				C216.7,1329.9,214.2,1326.8,214.2,1323.1z"/>
			<path class="st2" d="M226.7,1254.1c-0.3,0-0.6,0.1-1,0.1c-4.3,0-7.9-3.5-7.9-7.9c0-4.3,3.5-7.9,7.9-7.9c4.3,0,7.9,3.5,7.9,7.9
				c0,2.7-1.4,5.1-3.4,6.5l21.5,56.9v236.5H248v-235.8L226.7,1254.1z"/>
		</g>
		<g>
			<path class="st2" d="M298.9,1234.2h39.8v166.5c3.4,0.8,6,3.9,6,7.6c0,4.3-3.5,7.9-7.9,7.9c-4.3,0-7.9-3.5-7.9-7.9
				c0-3.7,2.6-6.8,6-7.6v-162.8h-32.4v308.4h-3.7V1234.2z"/>
			<path class="st2" d="M310.9,1290.7c0-4.3,3.5-7.9,7.9-7.9c4.3,0,7.9,3.5,7.9,7.9c0,3.7-2.6,6.8-6,7.6v248h-3.7v-248
				C313.5,1297.5,310.9,1294.4,310.9,1290.7z"/>
		</g>
		<g>
			<path class="st2" d="M271.1,1298.4l-23-61.7l-0.1-0.3v-175.1c-3.4-0.8-6-3.9-6-7.6c0-4.3,3.5-7.9,7.9-7.9c4.3,0,7.9,3.5,7.9,7.9
				c0,3.7-2.6,6.8-6,7.6v174.5l23,61.7l0.1,0.3v248.5h-3.7V1298.4z"/>
			<path class="st2" d="M278.4,897.4c0-4.3,3.5-7.9,7.9-7.9c4.3,0,7.9,3.5,7.9,7.9c0,3.7-2.6,6.8-6,7.6v641.2h-3.7V905
				C280.9,904.2,278.4,901.1,278.4,897.4z"/>
		</g>
	</g>
</g>
</svg>
